<svg id="visual" viewBox="0 0 960 540" width="960" height="540" xmlns="http://www.w3.org/2000/svg" xmlns:xlink="http://www.w3.org/1999/xlink" version="1.1"><rect x="0" y="0" width="960" height="540" fill="#E1E1E1"></rect><defs><linearGradient id="grad1_0" x1="43.8%" y1="0%" x2="100%" y2="100%"><stop offset="14.444444444444446%" stop-color="#f1f1f1" stop-opacity="1"></stop><stop offset="85.55555555555554%" stop-color="#f1f1f1" stop-opacity="1"></stop></linearGradient></defs><defs><linearGradient id="grad2_0" x1="0%" y1="0%" x2="56.3%" y2="100%"><stop offset="14.444444444444446%" stop-color="#f1f1f1" stop-opacity="1"></stop><stop offset="85.55555555555554%" stop-color="#f1f1f1" stop-opacity="1"></stop></linearGradient></defs><g transform="translate(960, 0)"><path d="M0 324C-43 309.8 -85.9 295.6 -111 267.9C-136 240.3 -143.2 199.3 -176.8 176.8C-210.4 154.3 -270.4 150.4 -299.3 124C-328.3 97.6 -326.1 48.8 -324 0L0 0Z" fill="#cacaca"></path></g><g transform="translate(0, 540)"><path d="M0 -324C47.3 -324.1 94.6 -324.3 124 -299.3C153.4 -274.4 165 -224.3 193 -193C221.1 -161.7 265.5 -149.2 290.1 -120.2C314.7 -91.1 319.3 -45.6 324 0L0 0Z" fill="#cacaca"></path></g></svg>